<?xml version="1.0" encoding="UTF-8"?>
<svg id="_레이어_2" data-name="레이어 2" xmlns="http://www.w3.org/2000/svg" viewBox="0 0 280.07 40.02">
  <defs>
    <style>
      .cls-1 {
        fill: #00aeef;
      }

      .cls-1, .cls-2 {
        stroke-width: 0px;
      }

      .cls-2 {
        fill: #021c38;
      }
    </style>
  </defs>
  <g id="Layer_1" data-name="Layer 1">
    <g>
      <g>
        <path class="cls-2" d="m119.47,40.02V13.98h5.09v26.04h-5.09Z"/>
        <path class="cls-2" d="m148.29,40.02h-5.13l-9.84-16.2v16.2h-5.09V13.98h5.09l9.84,16.2V13.98h5.13v26.04Z"/>
        <path class="cls-2" d="m159.63,24.44h8.37v5.13h-10.96v10.45h-5.09v-19.1c0-3.82,3.12-6.94,6.94-6.94h11.19l-1.54,5.13h-9.57c-1.04,0-1.93.85-1.93,1.93v5.98l2.59-2.58Z"/>
        <path class="cls-2" d="m192.85,20.93v12.15c0,3.82-3.12,6.94-6.95,6.94h-6.56c-3.82,0-6.95-3.12-6.95-6.94v-12.15c0-3.82,3.12-6.94,6.95-6.94h6.56c3.82,0,6.95,3.12,6.95,6.94Zm-5.13.12c0-1.08-.85-1.93-1.93-1.93h-6.37c-1.04,0-1.93.85-1.93,1.93v11.96c0,1.04.89,1.93,1.93,1.93h6.37c1.08,0,1.93-.89,1.93-1.93v-11.96Z"/>
        <path class="cls-2" d="m215.41,19.11h-7.49v20.91h-5.09v-18.36l2.55-2.55h-10.03v-5.13h20.06v5.13Z"/>
        <path class="cls-2" d="m236.24,24.44v5.13h-13.04v3.43c0,1.04.89,1.93,1.93,1.93h11.11v5.09h-11.19c-3.82,0-6.94-3.12-6.94-6.94v-12.15c0-3.82,3.12-6.94,6.94-6.94h11.19l-1.54,5.13h-9.57c-1.04,0-1.93.85-1.93,1.93v5.98l2.58-2.58h10.46Z"/>
        <path class="cls-2" d="m257.69,34.93v5.09h-10.84c-3.82,0-6.94-3.12-6.94-6.94v-12.15c0-3.82,3.12-6.94,6.94-6.94h10.84l-1.54,5.13h-9.22c-1.04,0-1.93.85-1.93,1.93v11.96c0,1.04.89,1.93,1.93,1.93h10.76Z"/>
        <path class="cls-2" d="m280.07,40.02h-5.13v-10.45h-9.06v10.45h-5.09V13.98h5.09v13.04l2.58-2.58h6.48v-10.45h5.13v26.04Z"/>
      </g>
      <g>
        <path class="cls-2" d="m22.58,15.46h-11.06c-1.18,0-2.13-.93-2.13-2.06v-2.16c0-1.14.96-2.06,2.13-2.06h18.09L35.96.03H11.4C5.12.03,0,4.98,0,11.06v2.5c0,6.08,5.12,11.03,11.4,11.03h11c1.2,0,2.13.91,2.13,2.06v2.22c0,1.14-.96,2.06-2.13,2.06H.28v9.08h22.3c6.29,0,11.4-4.95,11.4-11.03v-2.51c0-6.08-5.12-11.03-11.4-11.03Z"/>
        <g>
          <polygon class="cls-1" points="90.87 0 106.75 0 106.75 27.78 90.87 0"/>
          <polygon class="cls-2" points="101.21 30.28 83.98 0 82.86 0 73.08 0 73.08 40.02 82.86 40.02 82.86 17.19 95.85 40.02 106.75 40.02 106.75 30.28 101.21 30.28"/>
        </g>
        <polygon class="cls-2" points="40.9 0 34.55 9.17 47.56 9.17 47.56 14.54 47.56 40.02 57.34 40.02 57.34 9.17 69.23 9.17 69.23 0 40.9 0"/>
      </g>
    </g>
  </g>
</svg>